<svg width="888" height="888" viewBox="0 0 888 888" fill="none" xmlns="http://www.w3.org/2000/svg">
<path d="M528.787 268.919C535.469 271.832 539.325 279.031 537.868 286.226L510.023 429.565V429.65L476.695 412.084C472.069 409.601 466.414 411.315 463.843 415.856L460.759 421.337C459.731 423.14 459.131 425.109 458.874 426.993L445.851 427.252C445.851 425.794 445.68 424.254 445.251 422.711L429.144 361.453L408.496 260.525C408.239 259.411 408.153 258.297 408.153 257.183C408.153 249.984 412.78 243.474 419.805 241.246C429.059 238.333 438.826 243.903 441.053 253.326L475.667 389.641L507.453 279.201C509.338 272.176 515.764 267.635 522.618 267.635C524.674 267.635 526.73 268.065 528.787 268.919Z" fill="#FFCC99"/>
<path d="M380.908 420.138V400.263C380.908 392.894 385.535 386.299 392.474 383.811L431.358 369.871L429.144 361.453L366.772 383.811C359.832 386.299 355.205 392.894 355.205 400.263V420.138L383.222 507.616V573.674H408.924V507.616L380.908 420.138Z" fill="white"/>
<path d="M508.052 507.616L530.329 465.807C536.154 454.926 532.042 441.302 521.075 435.476L510.023 429.65L476.695 412.084C472.069 409.601 466.414 411.315 463.843 415.856L460.759 421.337C459.731 423.14 459.131 425.109 458.874 426.993L445.851 427.252C445.851 425.794 445.68 424.254 445.251 422.711L431.358 369.871L392.474 383.811C385.535 386.299 380.908 392.894 380.908 400.263V420.138L408.924 507.616V573.674H486.034V533.32L508.052 507.616Z" fill="#FFCC99"/>
<path d="M379.537 632.105V588.753C379.537 580.44 386.306 573.674 394.616 573.674H383.221H368.913C360.603 573.674 353.834 580.44 353.834 588.753V632.105C353.834 640.414 360.603 647.098 368.913 647.098H394.616C386.306 647.098 379.537 640.414 379.537 632.105Z" fill="white"/>
<path d="M475.667 389.641L441.053 253.326C438.826 243.903 429.059 238.333 419.805 241.245C412.78 243.474 408.153 249.984 408.153 257.183C408.153 258.297 408.239 259.411 408.496 260.525L429.144 361.452" stroke="#231F20" stroke-width="9" stroke-miterlimit="10"/>
<path d="M510.024 429.565L537.868 286.226C539.325 279.031 535.469 271.832 528.787 268.919C526.73 268.065 524.674 267.635 522.618 267.635C515.764 267.635 509.338 272.177 507.453 279.201L475.667 389.641" stroke="#231F20" stroke-width="9" stroke-miterlimit="10"/>
<path d="M490.574 461.092L477.551 451.154L464.871 441.387C460.331 437.959 458.189 432.393 458.874 426.993C459.131 425.109 459.731 423.14 460.759 421.337L463.843 415.856C466.414 411.315 472.069 409.601 476.695 412.084L510.023 429.65L521.075 435.476C532.042 441.302 536.154 454.926 530.329 465.807L508.053 507.616L486.034 533.32V573.674H383.222V507.616L355.205 420.138V400.263C355.205 392.894 359.832 386.299 366.772 383.811L429.144 361.453L445.251 422.711C445.68 424.254 445.851 425.794 445.851 427.252C445.851 435.731 439.854 443.36 431.115 444.899L406.954 449.27C398.472 450.814 390.161 445.928 387.42 437.874L379.28 414.657" stroke="#231F20" stroke-width="9" stroke-miterlimit="10"/>
<path d="M477.552 451.154L440.54 494.336" stroke="#231F20" stroke-width="9" stroke-miterlimit="10"/>
<rect x="345" y="573" width="169" height="72" rx="16" fill="white" stroke="#231F20" stroke-width="8"/>
<rect x="365" y="577" width="145" height="64" rx="10" fill="#66CC99"/>
</svg>
